<?xml version="1.0" encoding="utf-8"?>
<!-- Generator: Adobe Illustrator 17.0.0, SVG Export Plug-In . SVG Version: 6.00 Build 0)  -->
<!DOCTYPE svg PUBLIC "-//W3C//DTD SVG 1.1//EN" "http://www.w3.org/Graphics/SVG/1.1/DTD/svg11.dtd">
<svg version="1.1" id="Layer_1" xmlns="http://www.w3.org/2000/svg" xmlns:xlink="http://www.w3.org/1999/xlink" x="0px" y="0px"
	 width="351.088px" height="337.412px" viewBox="0 0 351.088 337.412" enable-background="new 0 0 351.088 337.412"
	 xml:space="preserve">
<g enable-background="new    ">
	<g>
		<g>
			<defs>
				<path id="SVGID_1_" d="M252.961,41.287c0,11.326,9.168,20.5,20.487,20.5V84.85c-11.319,0-20.487,9.173-20.487,20.5
					c0,11.326,9.168,20.5,20.487,20.5v23.062c-11.319,0-20.487,9.174-20.487,20.5s9.168,20.5,20.487,20.5v23.062
					c-11.319,0-20.487,9.174-20.487,20.5c0,11.327,9.168,20.5,20.487,20.5v23.063c-11.319,0-20.487,9.174-20.487,20.5
					s9.168,20.5,20.487,20.5v15.375H2v-328h271.448v15.375C262.129,20.787,252.961,29.961,252.961,41.287"/>
			</defs>
			<clipPath id="SVGID_2_">
				<use xlink:href="#SVGID_1_"  overflow="visible"/>
			</clipPath>
			<g clip-path="url(#SVGID_2_)">
				<defs>
					<rect id="SVGID_3_" x="-650" y="-418.588" width="1024" height="2099"/>
				</defs>
				<clipPath id="SVGID_4_">
					<use xlink:href="#SVGID_3_"  overflow="visible"/>
				</clipPath>
				<rect x="-3" y="0.412" clip-path="url(#SVGID_4_)" fill="#FFFFFF" width="281.448" height="338"/>
			</g>
		</g>
		<g>
			<defs>
				<path id="SVGID_5_" d="M217.682,247.969l75.653-145.453l27.706-13.299c1.859,3.857,4.922,7.186,9.01,9.315
					c4.09,2.134,8.573,2.733,12.798,2.044l5.01,30.341l-75.653,145.454L217.682,247.969z"/>
			</defs>
			<clipPath id="SVGID_6_">
				<use xlink:href="#SVGID_5_"  overflow="visible"/>
			</clipPath>
			<g clip-path="url(#SVGID_6_)">
				<defs>
					<rect id="SVGID_7_" x="-650" y="-418.588" width="1024" height="2099"/>
				</defs>
				<clipPath id="SVGID_8_">
					<use xlink:href="#SVGID_7_"  overflow="visible"/>
				</clipPath>
				
					<rect x="199.67" y="96.245" transform="matrix(0.9703 -0.2419 0.2419 0.9703 -36.6175 74.0473)" clip-path="url(#SVGID_8_)" fill="#F4D0A1" width="167.107" height="179.781"/>
			</g>
		</g>
		<g>
			<defs>
				<path id="SVGID_9_" d="M217.857,248.06c-0.097-0.05-0.137-0.167-0.082-0.265l73.933-142.151c0.117-0.23,0.43-0.097,0.366,0.157
					c-1.747,6.774,1.324,14.073,7.798,17.451c6.835,3.556,15.074,1.497,19.483-4.531c0.126-0.174,0.385-0.043,0.315,0.165
					c-2.407,7.07,0.633,15.006,7.464,18.569c6.55,3.406,14.391,1.657,18.91-3.801c0.146-0.179,0.401-0.021,0.293,0.18
					l-74.043,142.364c-0.05,0.097-0.168,0.132-0.265,0.082L217.857,248.06z"/>
			</defs>
			<clipPath id="SVGID_10_">
				<use xlink:href="#SVGID_9_"  overflow="visible"/>
			</clipPath>
			<g clip-path="url(#SVGID_10_)">
				<defs>
					<rect id="SVGID_11_" x="-650" y="-418.588" width="1024" height="2099"/>
				</defs>
				<clipPath id="SVGID_12_">
					<use xlink:href="#SVGID_11_"  overflow="visible"/>
				</clipPath>
				
					<rect x="200.867" y="105.428" transform="matrix(0.9703 -0.2419 0.2419 0.9703 -37.8033 73.9117)" clip-path="url(#SVGID_12_)" fill="#0A9CBF" width="162.419" height="170.935"/>
			</g>
		</g>
		<g>
			<defs>
				<polygon id="SVGID_13_" points="217.682,247.969 272.206,276.371 267.479,285.463 212.955,257.06 				"/>
			</defs>
			<clipPath id="SVGID_14_">
				<use xlink:href="#SVGID_13_"  overflow="visible"/>
			</clipPath>
			<g clip-path="url(#SVGID_14_)">
				<defs>
					<rect id="SVGID_15_" x="-650" y="-418.588" width="1024" height="2099"/>
				</defs>
				<clipPath id="SVGID_16_">
					<use xlink:href="#SVGID_15_"  overflow="visible"/>
				</clipPath>
				
					<rect x="211.17" y="237.503" transform="matrix(0.9703 -0.2419 0.2419 0.9703 -57.3204 66.6105)" clip-path="url(#SVGID_16_)" fill="#FBCC1E" width="62.82" height="58.427"/>
			</g>
		</g>
		<g>
			<defs>
				<path id="SVGID_17_" d="M224.759,299.06l0.545,0.281c14.905,7.766,33.276,1.971,41.033-12.941l0.138-0.272l-54.524-28.402
					l-0.138,0.273C204.056,272.91,209.853,291.293,224.759,299.06"/>
			</defs>
			<clipPath id="SVGID_18_">
				<use xlink:href="#SVGID_17_"  overflow="visible"/>
			</clipPath>
			<g clip-path="url(#SVGID_18_)">
				<defs>
					<rect id="SVGID_19_" x="-651" y="-417.921" width="1024" height="2099"/>
				</defs>
				<clipPath id="SVGID_20_">
					<use xlink:href="#SVGID_19_"  overflow="visible"/>
				</clipPath>
				
					<rect x="204.746" y="247.345" transform="matrix(0.9703 -0.2419 0.2419 0.9703 -60.2175 65.5162)" clip-path="url(#SVGID_20_)" fill="#F59393" width="63.871" height="61.251"/>
			</g>
		</g>
		<g>
			<defs>
				<path id="SVGID_21_" d="M217.773,247.798l74.03-142.334c0.107-0.206,0.385-0.085,0.325,0.141
					c-1.86,6.828,1.207,14.24,7.747,17.648c6.818,3.551,15.034,1.508,19.451-4.49c0.075-0.103,0.214-0.011,0.156,0.098
					l-74.447,143.136c-0.05,0.097-0.167,0.136-0.263,0.086l-26.917-14.025C217.758,248.012,217.723,247.895,217.773,247.798"/>
			</defs>
			<clipPath id="SVGID_22_">
				<use xlink:href="#SVGID_21_"  overflow="visible"/>
			</clipPath>
			<g clip-path="url(#SVGID_22_)">
				<defs>
					<rect id="SVGID_23_" x="-650" y="-418.588" width="1024" height="2099"/>
				</defs>
				<clipPath id="SVGID_24_">
					<use xlink:href="#SVGID_23_"  overflow="visible"/>
				</clipPath>
				
					<rect x="198.719" y="108.306" transform="matrix(0.9703 -0.2419 0.2419 0.9703 -36.4506 70.4615)" clip-path="url(#SVGID_24_)" fill="#0E84AB" width="139.959" height="150.707"/>
			</g>
		</g>
		<g>
			<defs>
				<path id="SVGID_25_" d="M321.041,89.216l18.465-8.866l3.343,20.225c-4.225,0.689-8.708,0.09-12.798-2.043
					C325.963,96.403,322.9,93.073,321.041,89.216"/>
			</defs>
			<clipPath id="SVGID_26_">
				<use xlink:href="#SVGID_25_"  overflow="visible"/>
			</clipPath>
			<g clip-path="url(#SVGID_26_)">
				<defs>
					<rect id="SVGID_27_" x="-650" y="-418.588" width="1024" height="2099"/>
				</defs>
				<clipPath id="SVGID_28_">
					<use xlink:href="#SVGID_27_"  overflow="visible"/>
				</clipPath>
				
					<rect x="317.214" y="77.473" transform="matrix(0.9703 -0.2419 0.2419 0.9703 -12.5548 83.1361)" clip-path="url(#SVGID_28_)" fill="#85472E" width="30.061" height="30.434"/>
			</g>
		</g>
		<g>
			<defs>
				<path id="SVGID_29_" d="M119.8,59.224c-35.304,0-64.021,28.736-64.021,64.063c0,36.367,29.388,64.063,64.021,64.063
					c34.756,0,64.021-27.757,64.021-64.063C183.82,87.96,155.098,59.224,119.8,59.224 M103.062,179.807
					c-0.026-0.011-0.046-0.021-0.067-0.026c4.415-17.897,6.428-31.504,6.919-41.784c5.89,0.666,13.977,0.666,19.974,0
					c0.44,10.28,2.402,23.882,6.771,41.779c-0.046,0.015-0.082,0.031-0.123,0.046C125.756,183.015,113.818,183.025,103.062,179.807
					 M141.475,178.11c-4.353-17.948-6.177-31.191-6.566-40.831c14.592-2.716,19.155-9.378,20.538-13.735
					c2.151-6.816-1.28-13.069-5.429-16.041c-3.995-2.819-8.707-2.87-12.394-0.102c-3.227,2.46-7.734,8.815-7.836,25.471
					c-5.787,0.666-14.033,0.666-19.77-0.051c0-16.708-4.405-23.063-7.631-25.472c-3.585-2.665-8.148-2.613-12.036,0.103
					c-4.251,3.075-7.478,9.583-5.378,16.143c1.332,4.306,5.787,10.814,19.821,13.582c-0.538,10.301-2.586,23.81-6.72,40.882
					c-22.592-8.953-37.173-30.407-37.173-54.771c0-32.498,26.417-58.937,58.899-58.937c32.476,0,58.899,26.439,58.899,58.937
					C178.699,147.693,164.097,169.167,141.475,178.11 M134.857,132.102c0.205-14.965,4.297-19.424,5.839-20.602
					c1.019-0.769,1.997-1.026,2.919-1.026c1.429,0,2.663,0.667,3.432,1.231c2.766,1.947,4.866,6.098,3.529,10.301
					C149.761,124.568,146.637,129.693,134.857,132.102 M104.896,132.001c-11.216-2.409-14.238-7.432-15.058-9.943
					c-1.383-4.254,0.717-8.456,3.483-10.404c0.768-0.563,1.946-1.179,3.278-1.179c0.871,0,1.793,0.257,2.715,0.974
					C102.693,113.96,104.896,120.572,104.896,132.001"/>
			</defs>
			<clipPath id="SVGID_30_">
				<use xlink:href="#SVGID_29_"  overflow="visible"/>
			</clipPath>
			<g clip-path="url(#SVGID_30_)">
				<defs>
					<rect id="SVGID_31_" x="-650" y="-418.588" width="1024" height="2099"/>
				</defs>
				<clipPath id="SVGID_32_">
					<use xlink:href="#SVGID_31_"  overflow="visible"/>
				</clipPath>
				<rect x="50.779" y="54.224" clip-path="url(#SVGID_32_)" fill="#21B2D1" width="138.042" height="138.126"/>
			</g>
		</g>
		<g>
			<defs>
				<path id="SVGID_33_" d="M129.666,251.662c-6.074,0-15.339-0.748-19.887-4.925c-1.875-1.722-2.868-3.931-2.868-6.396
					c0-2.788,0.804-5.433,2.346-7.826c-4.42-2.634-7.467-6.242-7.467-10.88c0-2.594,0.569-4.931,1.567-7.016
					c-3.181-1.323-5.757-3.034-7.319-5.172c-1.951-2.67-3.339-7.149,1.111-13.34c0.83-1.153,2.428-1.414,3.575-0.584
					c1.147,0.825,1.414,2.429,0.584,3.577c-1.869,2.604-2.417,4.797-1.618,6.519c0.855,1.84,3.175,3.459,6.586,4.725
					c6.049-6.606,17.055-9.676,25.649-9.676c4.215,0,7.882,0.713,10.607,2.061c3.452,1.701,5.352,4.433,5.352,7.697
					c0,2.583-2.064,4.572-6.141,5.899c-7.457,2.44-22.336,2.845-33.439-0.066c-0.886,1.599-1.393,3.387-1.393,5.376
					c0,2.695,2.269,5.099,5.752,6.99c1.26-1.102,2.72-2.116,4.364-3.029c5.142-2.849,11.862-4.546,17.982-4.546
					c7.944,0,12.876,2.978,12.876,7.765c0,1.84-0.732,5.243-5.659,7.359c-2.771,1.184-6.525,1.815-10.863,1.815
					c-5.362,0-11.882-1.051-17.434-3.224c-1.193,1.645-1.895,3.505-1.895,5.576c0,6.299,16.492,6.539,22.827,5.996
					c1.424-0.133,2.653,0.923,2.771,2.332c0.123,1.409-0.917,2.65-2.325,2.773C134.69,251.497,132.534,251.662,129.666,251.662
					 M118.183,230.896c7.314,2.26,17.306,2.593,22.023,0.568c2.556-1.101,2.556-2.265,2.556-2.649c0-1.281-2.72-2.64-7.754-2.64
					C129.666,226.174,122.967,227.804,118.183,230.896 M112.078,211.943c2.31,0.467,4.871,0.815,7.631,1.03
					c12.528,0.964,22.085-1.317,23.135-2.885c-0.082-0.128-0.082-1.532-2.576-2.767c-1.997-0.984-4.958-1.528-8.343-1.528
					C125.584,205.792,117.333,207.782,112.078,211.943"/>
			</defs>
			<clipPath id="SVGID_34_">
				<use xlink:href="#SVGID_33_"  overflow="visible"/>
			</clipPath>
			<g clip-path="url(#SVGID_34_)">
				<defs>
					<rect id="SVGID_35_" x="-650" y="-418.588" width="1024" height="2099"/>
				</defs>
				<clipPath id="SVGID_36_">
					<use xlink:href="#SVGID_35_"  overflow="visible"/>
				</clipPath>
				<rect x="89.191" y="190.037" clip-path="url(#SVGID_36_)" fill="#21B2D1" width="63.693" height="66.624"/>
			</g>
		</g>
		<g>
			<defs>
				<path id="SVGID_37_" d="M206.867,123.287c0,2.829-2.294,5.125-5.122,5.125h-10.243c-2.827,0-5.122-2.296-5.122-5.125
					s2.294-5.125,5.122-5.125h10.243C204.572,118.162,206.867,120.459,206.867,123.287"/>
			</defs>
			<clipPath id="SVGID_38_">
				<use xlink:href="#SVGID_37_"  overflow="visible"/>
			</clipPath>
			<g clip-path="url(#SVGID_38_)">
				<defs>
					<rect id="SVGID_39_" x="-650" y="-418.588" width="1024" height="2099"/>
				</defs>
				<clipPath id="SVGID_40_">
					<use xlink:href="#SVGID_39_"  overflow="visible"/>
				</clipPath>
				<rect x="181.38" y="113.162" clip-path="url(#SVGID_40_)" fill="#21B2D1" width="30.487" height="20.25"/>
			</g>
		</g>
		<g>
			<defs>
				<path id="SVGID_41_" d="M119.798,31.037c2.827,0,5.122,2.296,5.122,5.125v10.25c0,2.829-2.294,5.125-5.122,5.125
					c-2.827,0-5.122-2.296-5.122-5.125v-10.25C114.677,33.334,116.971,31.037,119.798,31.037"/>
			</defs>
			<clipPath id="SVGID_42_">
				<use xlink:href="#SVGID_41_"  overflow="visible"/>
			</clipPath>
			<g clip-path="url(#SVGID_42_)">
				<defs>
					<rect id="SVGID_43_" x="-650" y="-418.588" width="1024" height="2099"/>
				</defs>
				<clipPath id="SVGID_44_">
					<use xlink:href="#SVGID_43_"  overflow="visible"/>
				</clipPath>
				<rect x="109.677" y="26.037" clip-path="url(#SVGID_44_)" fill="#48C6E4" width="20.243" height="30.5"/>
			</g>
		</g>
		<g>
			<defs>
				<path id="SVGID_45_" d="M193.617,173.709c-1.393,2.465-4.517,3.332-6.981,1.943l-8.917-5.043
					c-2.464-1.394-3.329-4.521-1.941-6.986c1.393-2.46,4.517-3.331,6.981-1.937l8.917,5.038
					C194.14,168.117,195.005,171.244,193.617,173.709"/>
			</defs>
			<clipPath id="SVGID_46_">
				<use xlink:href="#SVGID_45_"  overflow="visible"/>
			</clipPath>
			<g clip-path="url(#SVGID_46_)">
				<defs>
					<rect id="SVGID_47_" x="-650" y="-418.588" width="1024" height="2099"/>
				</defs>
				<clipPath id="SVGID_48_">
					<use xlink:href="#SVGID_47_"  overflow="visible"/>
				</clipPath>
				<rect x="170.117" y="156.021" clip-path="url(#SVGID_48_)" fill="#21B2D1" width="29.162" height="25.293"/>
			</g>
		</g>
		<g>
			<defs>
				<path id="SVGID_49_" d="M188.87,65.261c1.603,2.332,1.009,5.525-1.321,7.124l-8.446,5.807c-2.33,1.599-5.516,1.009-7.119-1.328
					c-1.603-2.332-1.009-5.519,1.321-7.124l8.446-5.801C184.082,62.334,187.273,62.928,188.87,65.261"/>
			</defs>
			<clipPath id="SVGID_50_">
				<use xlink:href="#SVGID_49_"  overflow="visible"/>
			</clipPath>
			<g clip-path="url(#SVGID_50_)">
				<defs>
					<rect id="SVGID_51_" x="-650" y="-418.588" width="1024" height="2099"/>
				</defs>
				<clipPath id="SVGID_52_">
					<use xlink:href="#SVGID_51_"  overflow="visible"/>
				</clipPath>
				<rect x="166.083" y="58.037" clip-path="url(#SVGID_52_)" fill="#21B2D1" width="28.688" height="26.054"/>
			</g>
		</g>
		<g>
			<defs>
				<path id="SVGID_53_" d="M32.73,123.287c0,2.829,2.294,5.125,5.122,5.125h10.243c2.827,0,5.122-2.296,5.122-5.125
					s-2.294-5.125-5.122-5.125H37.852C35.024,118.162,32.73,120.459,32.73,123.287"/>
			</defs>
			<clipPath id="SVGID_54_">
				<use xlink:href="#SVGID_53_"  overflow="visible"/>
			</clipPath>
			<g clip-path="url(#SVGID_54_)">
				<defs>
					<rect id="SVGID_55_" x="-650" y="-418.588" width="1024" height="2099"/>
				</defs>
				<clipPath id="SVGID_56_">
					<use xlink:href="#SVGID_55_"  overflow="visible"/>
				</clipPath>
				<rect x="27.73" y="113.162" clip-path="url(#SVGID_56_)" fill="#48C6E4" width="30.487" height="20.25"/>
			</g>
		</g>
		<g>
			<defs>
				<path id="SVGID_57_" d="M45.979,173.709c1.393,2.465,4.517,3.332,6.981,1.943l8.917-5.043c2.464-1.394,3.329-4.521,1.941-6.986
					c-1.393-2.46-4.517-3.331-6.981-1.937l-8.917,5.038C45.457,168.117,44.591,171.244,45.979,173.709"/>
			</defs>
			<clipPath id="SVGID_58_">
				<use xlink:href="#SVGID_57_"  overflow="visible"/>
			</clipPath>
			<g clip-path="url(#SVGID_58_)">
				<defs>
					<rect id="SVGID_59_" x="-650" y="-418.588" width="1024" height="2099"/>
				</defs>
				<clipPath id="SVGID_60_">
					<use xlink:href="#SVGID_59_"  overflow="visible"/>
				</clipPath>
				<rect x="40.318" y="156.021" clip-path="url(#SVGID_60_)" fill="#48C6E4" width="29.162" height="25.293"/>
			</g>
		</g>
		<g>
			<defs>
				<path id="SVGID_61_" d="M50.726,65.261c-1.603,2.332-1.009,5.525,1.321,7.124l8.446,5.807c2.33,1.599,5.516,1.009,7.119-1.328
					c1.603-2.332,1.009-5.519-1.321-7.124l-8.446-5.801C55.515,62.334,52.324,62.928,50.726,65.261"/>
			</defs>
			<clipPath id="SVGID_62_">
				<use xlink:href="#SVGID_61_"  overflow="visible"/>
			</clipPath>
			<g clip-path="url(#SVGID_62_)">
				<defs>
					<rect id="SVGID_63_" x="-650" y="-418.588" width="1024" height="2099"/>
				</defs>
				<clipPath id="SVGID_64_">
					<use xlink:href="#SVGID_63_"  overflow="visible"/>
				</clipPath>
				<rect x="44.825" y="58.037" clip-path="url(#SVGID_64_)" fill="#48C6E4" width="28.688" height="26.054"/>
			</g>
		</g>
		<g>
			<defs>
				<path id="SVGID_65_" d="M55.778,123.287c0,14.524,4.794,28.08,13.137,38.976l3.667-3.67
					c-7.421-9.932-11.682-22.186-11.682-35.306c0-32.498,26.423-58.937,58.899-58.937c13.199,0,25.357,4.422,35.191,11.787
					l3.652-3.659c-10.786-8.277-24.225-13.254-38.843-13.254C84.495,59.224,55.778,87.96,55.778,123.287"/>
			</defs>
			<clipPath id="SVGID_66_">
				<use xlink:href="#SVGID_65_"  overflow="visible"/>
			</clipPath>
			<g clip-path="url(#SVGID_66_)">
				<defs>
					<rect id="SVGID_67_" x="-650" y="-418.588" width="1024" height="2099"/>
				</defs>
				<clipPath id="SVGID_68_">
					<use xlink:href="#SVGID_67_"  overflow="visible"/>
				</clipPath>
				<rect x="50.778" y="54.224" clip-path="url(#SVGID_68_)" fill="#48C6E4" width="112.863" height="113.039"/>
			</g>
		</g>
		<g>
			<defs>
				<path id="SVGID_69_" d="M102.385,107.349c-3.585-2.665-8.143-2.614-12.036,0.102c-4.251,3.075-7.478,9.584-5.378,16.144
					c1.019,3.295,3.918,7.877,11.508,11.085l3.944-3.941c-7.549-2.619-9.89-6.549-10.587-8.681
					c-1.383-4.254,0.717-8.457,3.483-10.404c0.768-0.564,1.946-1.179,3.278-1.179c0.871,0,1.793,0.256,2.714,0.974
					c2.786,2.07,4.753,6.985,5.362,15.031l4.558-4.561C107.824,113.131,104.782,109.137,102.385,107.349"/>
			</defs>
			<clipPath id="SVGID_70_">
				<use xlink:href="#SVGID_69_"  overflow="visible"/>
			</clipPath>
			<g clip-path="url(#SVGID_70_)">
				<defs>
					<rect id="SVGID_71_" x="-650" y="-418.588" width="1024" height="2099"/>
				</defs>
				<clipPath id="SVGID_72_">
					<use xlink:href="#SVGID_71_"  overflow="visible"/>
				</clipPath>
				<rect x="79.313" y="100.382" clip-path="url(#SVGID_72_)" fill="#48C6E4" width="34.92" height="39.298"/>
			</g>
		</g>
	</g>
</g>
</svg>
