<?xml version="1.0" encoding="utf-8"?>
<!-- Generator: Adobe Illustrator 17.0.0, SVG Export Plug-In . SVG Version: 6.00 Build 0)  -->
<!DOCTYPE svg PUBLIC "-//W3C//DTD SVG 1.1//EN" "http://www.w3.org/Graphics/SVG/1.1/DTD/svg11.dtd">
<svg version="1.1" id="Layer_1" xmlns="http://www.w3.org/2000/svg" xmlns:xlink="http://www.w3.org/1999/xlink" x="0px" y="0px"
	 width="136.799px" height="36.5px" viewBox="0 0 136.799 36.5" enable-background="new 0 0 136.799 36.5" xml:space="preserve">
<g>
	<path fill="#FFFFFF" d="M12.703,27.599c0.6,0,1.137-0.1,1.61-0.3s0.873-0.481,1.2-0.842c0.327-0.362,0.577-0.8,0.75-1.315
		c0.173-0.516,0.26-1.092,0.26-1.731v-9.992h3.104v9.992c0,0.992-0.16,1.91-0.479,2.752s-0.779,1.569-1.379,2.181
		c-0.6,0.612-1.327,1.089-2.181,1.431c-0.854,0.342-1.815,0.513-2.885,0.513s-2.031-0.171-2.884-0.513
		c-0.854-0.342-1.579-0.819-2.175-1.431c-0.596-0.611-1.054-1.338-1.373-2.181s-0.479-1.76-0.479-2.752v-9.992h3.104v9.98
		c0,0.639,0.086,1.216,0.26,1.731c0.173,0.516,0.421,0.956,0.744,1.321s0.721,0.648,1.194,0.848S12.103,27.599,12.703,27.599z"/>
	<path fill="#FFFFFF" d="M22.625,33.968V18.264h1.743c0.185,0,0.342,0.042,0.473,0.127s0.215,0.215,0.254,0.392l0.231,1.096
		c0.477-0.546,1.025-0.988,1.644-1.327s1.344-0.508,2.175-0.508c0.646,0,1.236,0.135,1.771,0.404c0.535,0.27,0.996,0.66,1.385,1.171
		c0.388,0.512,0.688,1.143,0.9,1.893c0.211,0.75,0.317,1.609,0.317,2.579c0,0.885-0.12,1.704-0.358,2.458s-0.579,1.408-1.021,1.961
		s-0.977,0.986-1.604,1.298s-1.329,0.467-2.105,0.467c-0.669,0-1.237-0.102-1.702-0.306s-0.883-0.486-1.252-0.848v4.846H22.625z
		 M28.164,20.295c-0.592,0-1.098,0.125-1.517,0.375c-0.419,0.25-0.81,0.602-1.171,1.056v5.308c0.323,0.4,0.675,0.679,1.056,0.836
		c0.381,0.158,0.791,0.237,1.229,0.237c0.431,0,0.821-0.081,1.171-0.242c0.35-0.162,0.646-0.408,0.888-0.739
		c0.242-0.331,0.429-0.748,0.56-1.252c0.131-0.503,0.196-1.098,0.196-1.783c0-0.692-0.056-1.279-0.167-1.759
		c-0.111-0.481-0.271-0.871-0.479-1.171c-0.208-0.3-0.46-0.519-0.756-0.658C28.877,20.364,28.541,20.295,28.164,20.295z"/>
	<path fill="#FFFFFF" d="M44.006,30.103c-0.369,0-0.612-0.173-0.727-0.519l-0.231-1.143c-0.246,0.277-0.504,0.527-0.773,0.75
		c-0.27,0.223-0.56,0.416-0.871,0.577s-0.646,0.287-1.004,0.375c-0.357,0.088-0.744,0.132-1.16,0.132
		c-0.646,0-1.238-0.134-1.777-0.404c-0.539-0.269-1.002-0.659-1.39-1.171c-0.389-0.512-0.689-1.144-0.9-1.898
		s-0.317-1.616-0.317-2.585c0-0.877,0.12-1.692,0.358-2.446s0.581-1.408,1.027-1.962c0.446-0.554,0.981-0.986,1.604-1.298
		s1.323-0.467,2.1-0.467c0.661,0,1.227,0.106,1.696,0.317s0.889,0.494,1.258,0.848v-6.254h2.85v17.146H44.006z M40.21,28.014
		c0.592,0,1.096-0.123,1.512-0.369s0.808-0.596,1.177-1.05v-5.308c-0.323-0.392-0.675-0.669-1.056-0.831
		c-0.381-0.162-0.791-0.243-1.229-0.243c-0.431,0-0.821,0.081-1.171,0.243c-0.35,0.161-0.646,0.406-0.889,0.732
		c-0.242,0.327-0.429,0.743-0.56,1.246c-0.131,0.504-0.196,1.098-0.196,1.783c0,0.692,0.056,1.279,0.167,1.76
		c0.111,0.481,0.271,0.873,0.479,1.177c0.208,0.304,0.461,0.523,0.761,0.658C39.506,27.947,39.841,28.014,40.21,28.014z"/>
	<path fill="#FFFFFF" d="M58.106,30.103h-1.281c-0.269,0-0.48-0.041-0.634-0.121c-0.154-0.081-0.27-0.244-0.346-0.49l-0.254-0.842
		c-0.3,0.269-0.594,0.506-0.883,0.709s-0.586,0.375-0.894,0.513c-0.308,0.139-0.635,0.243-0.981,0.312
		c-0.346,0.069-0.731,0.104-1.154,0.104c-0.5,0-0.961-0.067-1.385-0.203c-0.423-0.135-0.787-0.337-1.09-0.607
		s-0.541-0.606-0.709-1.007c-0.169-0.401-0.254-0.868-0.254-1.401c0-0.448,0.117-0.89,0.352-1.326
		c0.234-0.436,0.625-0.83,1.171-1.181c0.546-0.351,1.273-0.643,2.181-0.874c0.907-0.231,2.034-0.348,3.38-0.348v-0.697
		c0-0.798-0.167-1.39-0.502-1.773c-0.334-0.383-0.821-0.575-1.459-0.575c-0.461,0-0.846,0.054-1.154,0.162
		c-0.308,0.107-0.575,0.229-0.802,0.363c-0.227,0.135-0.437,0.256-0.629,0.363c-0.192,0.108-0.404,0.162-0.635,0.162
		c-0.192,0-0.357-0.05-0.496-0.15s-0.25-0.223-0.334-0.369l-0.52-0.912c1.362-1.246,3.004-1.869,4.927-1.869
		c0.692,0,1.31,0.113,1.852,0.34c0.542,0.227,1.002,0.542,1.379,0.946s0.664,0.887,0.86,1.448c0.196,0.562,0.294,1.177,0.294,1.846
		V30.103z M52.568,28.326c0.292,0,0.561-0.026,0.808-0.08c0.246-0.053,0.479-0.132,0.698-0.238c0.219-0.106,0.431-0.237,0.635-0.392
		s0.41-0.339,0.617-0.551v-1.981c-0.831,0-1.525,0.052-2.083,0.157s-1.006,0.238-1.344,0.401s-0.579,0.353-0.721,0.569
		c-0.143,0.217-0.213,0.453-0.213,0.709c0,0.503,0.148,0.864,0.444,1.081C51.704,28.217,52.091,28.326,52.568,28.326z"/>
	<path fill="#FFFFFF" d="M64.798,30.287c-1.023,0-1.812-0.29-2.365-0.871c-0.554-0.581-0.831-1.383-0.831-2.406v-6.612h-1.2
		c-0.154,0-0.287-0.05-0.398-0.15c-0.111-0.1-0.167-0.25-0.167-0.45v-1.131l1.904-0.312l0.6-3.231
		c0.031-0.154,0.102-0.273,0.214-0.357c0.111-0.085,0.251-0.127,0.421-0.127h1.477v3.727h3.115v2.031h-3.115v6.416
		c0,0.369,0.092,0.658,0.277,0.866c0.185,0.208,0.431,0.312,0.738,0.312c0.177,0,0.325-0.021,0.444-0.063
		c0.119-0.042,0.223-0.087,0.312-0.133c0.088-0.046,0.167-0.09,0.237-0.133c0.069-0.042,0.138-0.063,0.208-0.063
		c0.084,0,0.154,0.021,0.208,0.063c0.054,0.042,0.112,0.106,0.173,0.19l0.854,1.385c-0.416,0.346-0.893,0.607-1.431,0.785
		C65.933,30.199,65.375,30.287,64.798,30.287z"/>
	<path fill="#FFFFFF" d="M74.732,18.08c0.746,0,1.433,0.119,2.06,0.357c0.627,0.239,1.168,0.587,1.621,1.044
		c0.454,0.458,0.809,1.019,1.063,1.685c0.253,0.666,0.38,1.425,0.38,2.279c0,0.215-0.01,0.395-0.028,0.537
		c-0.02,0.143-0.054,0.254-0.104,0.334c-0.051,0.081-0.118,0.139-0.202,0.173c-0.085,0.034-0.192,0.052-0.323,0.052h-7.315
		c0.084,1.215,0.411,2.108,0.98,2.677c0.569,0.569,1.323,0.854,2.262,0.854c0.462,0,0.859-0.054,1.194-0.162
		c0.335-0.107,0.627-0.227,0.877-0.357s0.469-0.25,0.657-0.358c0.188-0.107,0.371-0.162,0.549-0.162c0.115,0,0.215,0.023,0.3,0.069
		c0.084,0.046,0.157,0.112,0.219,0.196l0.831,1.038c-0.315,0.37-0.669,0.679-1.062,0.929s-0.802,0.45-1.229,0.6
		c-0.427,0.15-0.862,0.255-1.304,0.317c-0.442,0.062-0.871,0.092-1.287,0.092c-0.823,0-1.588-0.136-2.296-0.409
		s-1.323-0.677-1.846-1.212c-0.523-0.534-0.935-1.196-1.235-1.984c-0.3-0.789-0.45-1.702-0.45-2.74c0-0.808,0.13-1.567,0.392-2.279
		c0.262-0.711,0.637-1.331,1.125-1.857s1.084-0.944,1.788-1.252C73.054,18.233,73.848,18.08,74.732,18.08z M74.79,20.122
		c-0.83,0-1.48,0.235-1.949,0.704c-0.47,0.469-0.77,1.135-0.9,1.996h5.354c0-0.369-0.05-0.717-0.149-1.044
		c-0.101-0.327-0.254-0.613-0.462-0.859s-0.469-0.44-0.784-0.583C75.583,20.193,75.214,20.122,74.79,20.122z"/>
	<path fill="#FFFFFF" d="M89.201,20.572c-0.077,0.123-0.157,0.209-0.242,0.26c-0.085,0.05-0.192,0.075-0.323,0.075
		c-0.139,0-0.286-0.038-0.444-0.115c-0.157-0.077-0.34-0.164-0.548-0.26s-0.444-0.183-0.71-0.259
		c-0.265-0.077-0.578-0.116-0.939-0.116c-0.563,0-1.004,0.12-1.327,0.358s-0.484,0.55-0.484,0.935c0,0.254,0.082,0.467,0.248,0.64
		c0.165,0.173,0.384,0.325,0.657,0.456s0.583,0.248,0.929,0.352c0.347,0.104,0.7,0.217,1.062,0.34s0.716,0.263,1.062,0.421
		c0.347,0.158,0.656,0.358,0.929,0.6c0.273,0.242,0.492,0.533,0.658,0.871c0.165,0.339,0.248,0.746,0.248,1.223
		c0,0.569-0.104,1.094-0.312,1.575c-0.208,0.48-0.512,0.896-0.912,1.246c-0.399,0.35-0.894,0.623-1.482,0.819
		c-0.588,0.196-1.264,0.294-2.024,0.294c-0.408,0-0.807-0.037-1.194-0.109c-0.389-0.073-0.762-0.175-1.119-0.306
		c-0.358-0.13-0.689-0.284-0.993-0.461c-0.304-0.177-0.57-0.369-0.802-0.577l0.658-1.085c0.084-0.13,0.185-0.23,0.3-0.3
		s0.262-0.104,0.438-0.104s0.344,0.05,0.502,0.15c0.157,0.1,0.34,0.208,0.548,0.323s0.452,0.223,0.732,0.323
		c0.281,0.1,0.637,0.15,1.067,0.15c0.339,0,0.629-0.041,0.871-0.121c0.243-0.081,0.442-0.187,0.601-0.317
		c0.157-0.131,0.272-0.283,0.346-0.456c0.073-0.173,0.109-0.352,0.109-0.537c0-0.277-0.082-0.504-0.248-0.681
		c-0.165-0.177-0.385-0.331-0.657-0.462c-0.273-0.13-0.585-0.248-0.935-0.352c-0.351-0.104-0.708-0.217-1.073-0.341
		c-0.365-0.123-0.723-0.267-1.073-0.433c-0.35-0.165-0.661-0.375-0.935-0.629c-0.272-0.253-0.492-0.565-0.657-0.935
		c-0.166-0.369-0.248-0.815-0.248-1.338c0-0.484,0.096-0.946,0.288-1.385s0.475-0.821,0.849-1.148
		c0.372-0.327,0.838-0.588,1.396-0.785c0.558-0.196,1.202-0.294,1.933-0.294c0.815,0,1.558,0.135,2.228,0.404
		c0.669,0.269,1.227,0.623,1.673,1.062L89.201,20.572z"/>
</g>
<g>
	<path fill="#FFFFFF" d="M99.142,14.313h-0.877c-0.184,0-0.328-0.028-0.434-0.083s-0.185-0.167-0.237-0.335l-0.174-0.576
		c-0.205,0.184-0.406,0.346-0.604,0.485c-0.197,0.14-0.401,0.257-0.611,0.352c-0.211,0.095-0.435,0.166-0.672,0.213
		c-0.236,0.047-0.5,0.071-0.789,0.071c-0.342,0-0.658-0.046-0.947-0.139c-0.29-0.092-0.538-0.231-0.746-0.416
		c-0.208-0.185-0.37-0.415-0.485-0.689c-0.116-0.274-0.174-0.594-0.174-0.958c0-0.306,0.08-0.609,0.24-0.907
		c0.161-0.298,0.428-0.567,0.802-0.808s0.871-0.44,1.492-0.598s1.392-0.238,2.313-0.238V9.209c0-0.546-0.115-0.951-0.344-1.213
		c-0.229-0.262-0.562-0.394-0.999-0.394c-0.315,0-0.579,0.037-0.789,0.11c-0.211,0.074-0.394,0.157-0.549,0.249
		c-0.155,0.092-0.299,0.175-0.431,0.249c-0.131,0.074-0.276,0.11-0.434,0.11c-0.132,0-0.245-0.034-0.34-0.103
		s-0.171-0.153-0.229-0.252l-0.355-0.624c0.932-0.853,2.055-1.279,3.371-1.279c0.474,0,0.896,0.078,1.267,0.233
		s0.686,0.371,0.943,0.647s0.454,0.606,0.589,0.991c0.134,0.384,0.201,0.805,0.201,1.263V14.313z M95.352,13.097
		c0.2,0,0.385-0.018,0.553-0.054c0.169-0.037,0.328-0.091,0.478-0.164c0.15-0.072,0.295-0.162,0.435-0.268
		c0.14-0.106,0.28-0.232,0.423-0.377v-1.355c-0.569,0-1.044,0.036-1.426,0.107c-0.381,0.071-0.688,0.163-0.919,0.274
		c-0.232,0.111-0.396,0.242-0.494,0.39c-0.098,0.148-0.146,0.31-0.146,0.485c0,0.344,0.101,0.591,0.304,0.739
		C94.761,13.023,95.025,13.097,95.352,13.097z"/>
	<path fill="#FFFFFF" d="M106.752,7.926c-0.059,0.074-0.114,0.131-0.17,0.173c-0.056,0.042-0.136,0.063-0.241,0.063
		c-0.1,0-0.197-0.03-0.292-0.091s-0.208-0.129-0.339-0.206c-0.132-0.076-0.288-0.145-0.47-0.205s-0.407-0.091-0.675-0.091
		c-0.343,0-0.643,0.062-0.9,0.186s-0.473,0.301-0.644,0.533c-0.171,0.232-0.299,0.512-0.383,0.841
		c-0.084,0.329-0.126,0.702-0.126,1.117c0,0.432,0.046,0.816,0.138,1.153s0.225,0.62,0.398,0.849s0.385,0.403,0.632,0.521
		c0.247,0.119,0.526,0.178,0.837,0.178s0.562-0.038,0.754-0.115c0.192-0.076,0.354-0.16,0.485-0.252
		c0.132-0.092,0.246-0.176,0.344-0.252s0.206-0.115,0.327-0.115c0.158,0,0.276,0.061,0.355,0.182l0.561,0.71
		c-0.216,0.253-0.45,0.465-0.702,0.636c-0.253,0.171-0.515,0.308-0.786,0.411c-0.271,0.103-0.551,0.175-0.841,0.217
		c-0.289,0.042-0.576,0.063-0.86,0.063c-0.5,0-0.971-0.094-1.413-0.28c-0.442-0.187-0.828-0.459-1.156-0.817
		c-0.329-0.358-0.59-0.796-0.782-1.314c-0.191-0.518-0.288-1.109-0.288-1.772c0-0.595,0.086-1.146,0.257-1.654
		s0.423-0.947,0.754-1.318c0.332-0.371,0.742-0.662,1.231-0.873s1.053-0.316,1.689-0.316c0.605,0,1.136,0.098,1.591,0.292
		s0.864,0.474,1.228,0.837L106.752,7.926z"/>
	<path fill="#FFFFFF" d="M114.283,7.926c-0.059,0.074-0.114,0.131-0.17,0.173c-0.056,0.042-0.136,0.063-0.241,0.063
		c-0.1,0-0.197-0.03-0.292-0.091s-0.208-0.129-0.339-0.206c-0.132-0.076-0.288-0.145-0.47-0.205s-0.407-0.091-0.675-0.091
		c-0.343,0-0.643,0.062-0.9,0.186s-0.473,0.301-0.644,0.533c-0.171,0.232-0.299,0.512-0.383,0.841
		c-0.084,0.329-0.126,0.702-0.126,1.117c0,0.432,0.046,0.816,0.138,1.153s0.225,0.62,0.398,0.849s0.385,0.403,0.632,0.521
		c0.247,0.119,0.526,0.178,0.837,0.178s0.562-0.038,0.754-0.115c0.192-0.076,0.354-0.16,0.485-0.252
		c0.132-0.092,0.246-0.176,0.344-0.252s0.206-0.115,0.327-0.115c0.158,0,0.276,0.061,0.355,0.182l0.561,0.71
		c-0.216,0.253-0.45,0.465-0.702,0.636c-0.253,0.171-0.515,0.308-0.786,0.411c-0.271,0.103-0.551,0.175-0.841,0.217
		c-0.289,0.042-0.576,0.063-0.86,0.063c-0.5,0-0.971-0.094-1.413-0.28c-0.442-0.187-0.828-0.459-1.156-0.817
		c-0.329-0.358-0.59-0.796-0.782-1.314c-0.191-0.518-0.288-1.109-0.288-1.772c0-0.595,0.086-1.146,0.257-1.654
		s0.423-0.947,0.754-1.318c0.332-0.371,0.742-0.662,1.231-0.873s1.053-0.316,1.689-0.316c0.605,0,1.136,0.098,1.591,0.292
		s0.864,0.474,1.228,0.837L114.283,7.926z"/>
	<path fill="#FFFFFF" d="M119.471,6.086c0.511,0,0.98,0.082,1.409,0.245s0.799,0.401,1.109,0.714s0.553,0.697,0.726,1.153
		c0.174,0.455,0.261,0.975,0.261,1.559c0,0.147-0.007,0.27-0.02,0.367c-0.013,0.097-0.037,0.173-0.071,0.229
		c-0.034,0.055-0.08,0.095-0.138,0.118c-0.059,0.024-0.132,0.036-0.222,0.036h-5.005c0.058,0.832,0.281,1.442,0.671,1.832
		s0.905,0.584,1.548,0.584c0.315,0,0.588-0.037,0.816-0.11c0.229-0.074,0.43-0.155,0.601-0.245s0.32-0.171,0.45-0.245
		c0.129-0.074,0.254-0.111,0.375-0.111c0.078,0,0.146,0.016,0.205,0.047c0.058,0.032,0.107,0.077,0.149,0.134l0.568,0.71
		c-0.216,0.253-0.457,0.465-0.726,0.636s-0.549,0.308-0.841,0.411c-0.292,0.103-0.59,0.175-0.893,0.217s-0.596,0.063-0.88,0.063
		c-0.563,0-1.087-0.094-1.571-0.28c-0.484-0.187-0.905-0.463-1.263-0.829c-0.358-0.366-0.64-0.818-0.845-1.358
		c-0.206-0.54-0.309-1.165-0.309-1.875c0-0.553,0.09-1.072,0.269-1.559s0.436-0.911,0.77-1.271c0.335-0.36,0.742-0.646,1.224-0.856
		C118.322,6.192,118.865,6.086,119.471,6.086z M119.51,7.484c-0.568,0-1.013,0.161-1.334,0.482
		c-0.321,0.321-0.526,0.776-0.616,1.366h3.664c0-0.253-0.035-0.491-0.104-0.715c-0.068-0.224-0.173-0.419-0.315-0.588
		c-0.142-0.168-0.321-0.301-0.537-0.399C120.052,7.533,119.8,7.484,119.51,7.484z"/>
	<path fill="#FFFFFF" d="M129.369,7.792c-0.053,0.084-0.107,0.144-0.165,0.178c-0.059,0.034-0.132,0.051-0.222,0.051
		c-0.095,0-0.196-0.026-0.304-0.079s-0.232-0.112-0.375-0.178c-0.142-0.065-0.304-0.125-0.485-0.178
		c-0.182-0.052-0.396-0.079-0.644-0.079c-0.384,0-0.687,0.082-0.908,0.245c-0.221,0.163-0.331,0.376-0.331,0.64
		c0,0.173,0.057,0.319,0.17,0.438c0.112,0.119,0.263,0.223,0.449,0.312c0.188,0.089,0.399,0.169,0.636,0.241
		c0.237,0.071,0.479,0.148,0.727,0.233c0.247,0.084,0.489,0.18,0.727,0.288c0.236,0.108,0.448,0.245,0.635,0.411
		c0.188,0.166,0.337,0.364,0.45,0.596c0.113,0.232,0.17,0.511,0.17,0.837c0,0.39-0.071,0.749-0.213,1.078
		c-0.143,0.329-0.351,0.613-0.624,0.853c-0.273,0.24-0.611,0.427-1.015,0.561c-0.402,0.134-0.864,0.202-1.385,0.202
		c-0.279,0-0.552-0.025-0.817-0.075s-0.521-0.12-0.766-0.209c-0.245-0.09-0.472-0.195-0.68-0.316s-0.391-0.252-0.548-0.395
		l0.449-0.742c0.059-0.09,0.127-0.158,0.206-0.206c0.078-0.047,0.179-0.071,0.3-0.071s0.235,0.034,0.343,0.103
		c0.108,0.068,0.233,0.142,0.375,0.221c0.143,0.079,0.31,0.152,0.502,0.221c0.191,0.069,0.436,0.103,0.73,0.103
		c0.231,0,0.43-0.028,0.596-0.083s0.303-0.127,0.41-0.217c0.108-0.089,0.188-0.193,0.237-0.312c0.05-0.118,0.075-0.241,0.075-0.367
		c0-0.189-0.057-0.345-0.17-0.466s-0.264-0.227-0.45-0.316s-0.4-0.17-0.64-0.241c-0.239-0.071-0.484-0.149-0.734-0.233
		s-0.494-0.183-0.734-0.296c-0.239-0.113-0.452-0.257-0.639-0.431c-0.188-0.173-0.337-0.387-0.45-0.639
		c-0.113-0.253-0.17-0.558-0.17-0.916c0-0.332,0.065-0.647,0.197-0.947s0.325-0.562,0.58-0.786c0.256-0.224,0.574-0.402,0.956-0.537
		c0.381-0.134,0.822-0.202,1.322-0.202c0.558,0,1.065,0.092,1.523,0.276c0.458,0.185,0.839,0.426,1.145,0.727L129.369,7.792z"/>
	<path fill="#FFFFFF" d="M136.27,7.792c-0.053,0.084-0.107,0.144-0.165,0.178c-0.059,0.034-0.132,0.051-0.222,0.051
		c-0.095,0-0.196-0.026-0.304-0.079s-0.232-0.112-0.375-0.178c-0.142-0.065-0.304-0.125-0.485-0.178
		c-0.182-0.052-0.396-0.079-0.644-0.079c-0.384,0-0.687,0.082-0.908,0.245c-0.221,0.163-0.331,0.376-0.331,0.64
		c0,0.173,0.057,0.319,0.17,0.438c0.112,0.119,0.263,0.223,0.449,0.312c0.188,0.089,0.399,0.169,0.636,0.241
		c0.237,0.071,0.479,0.148,0.727,0.233c0.247,0.084,0.489,0.18,0.727,0.288c0.236,0.108,0.448,0.245,0.635,0.411
		c0.188,0.166,0.337,0.364,0.45,0.596c0.113,0.232,0.17,0.511,0.17,0.837c0,0.39-0.071,0.749-0.213,1.078
		c-0.143,0.329-0.351,0.613-0.624,0.853c-0.273,0.24-0.611,0.427-1.015,0.561c-0.402,0.134-0.864,0.202-1.385,0.202
		c-0.279,0-0.552-0.025-0.817-0.075s-0.521-0.12-0.766-0.209c-0.245-0.09-0.472-0.195-0.68-0.316s-0.391-0.252-0.548-0.395
		l0.449-0.742c0.059-0.09,0.127-0.158,0.206-0.206c0.078-0.047,0.179-0.071,0.3-0.071s0.235,0.034,0.343,0.103
		c0.108,0.068,0.233,0.142,0.375,0.221c0.143,0.079,0.31,0.152,0.502,0.221c0.191,0.069,0.436,0.103,0.73,0.103
		c0.231,0,0.43-0.028,0.596-0.083s0.303-0.127,0.41-0.217c0.108-0.089,0.188-0.193,0.237-0.312c0.05-0.118,0.075-0.241,0.075-0.367
		c0-0.189-0.057-0.345-0.17-0.466s-0.264-0.227-0.45-0.316s-0.4-0.17-0.64-0.241c-0.239-0.071-0.484-0.149-0.734-0.233
		s-0.494-0.183-0.734-0.296c-0.239-0.113-0.452-0.257-0.639-0.431c-0.188-0.173-0.337-0.387-0.45-0.639
		c-0.113-0.253-0.17-0.558-0.17-0.916c0-0.332,0.065-0.647,0.197-0.947s0.325-0.562,0.58-0.786c0.256-0.224,0.574-0.402,0.956-0.537
		c0.381-0.134,0.822-0.202,1.322-0.202c0.558,0,1.065,0.092,1.523,0.276c0.458,0.185,0.839,0.426,1.145,0.727L136.27,7.792z"/>
</g>
</svg>
